# xmcd
#
# Track frame offsets: 
#        182
#        11715
#        20517
#        31335
#        45255
#        53222
#        62540
#        70667
#        81160
#        90370
#        99620
#        107577
#        117362
#        124412
#        134935
#        145892
#        158342
#        169122
#        178740
#        186232
#
# Disc length: 2584 seconds
#
# Revision: 1
# Processed by: cddbd v1.5.2PL0 Copyright (c) Steve Scherf et al.
# Submitted via: ExactAudioCopy v0.95b4
#
DISCID=0d0a1614
DTITLE=Various Artist - Bluegrass Bible ( Disc 2 )
DYEAR=2005
DGENRE=Bluegrass
TTITLE0=Somebody Touched Me
TTITLE1=Keep On The Sunny Side
TTITLE2=Are You Washed In The Blood
TTITLE3=God's Presence
TTITLE4=Lonely Tombs
TTITLE5=I Feel Like Traveling On
TTITLE6=Living The Right Life Now
TTITLE7=Back To The Cross
TTITLE8=I Found The Man
TTITLE9=Take Me In The Life Boat
TTITLE10=If I Could Hear My Mother Pray Again
TTITLE11=Family Reunion
TTITLE12=I'll Be A Frend To Jesus
TTITLE13=Preaching, Praying, Singing
TTITLE14=Methodist Pie
TTITLE15=Where No One Stands Alone
TTITLE16=Wings Of A Dove
TTITLE17=Gambling On The Sabbath Day
TTITLE18=You Go To Your Church
TTITLE19=I Like To Hear Them Preach It
EXTD=
EXTT0=
EXTT1=
EXTT2=
EXTT3=
EXTT4=
EXTT5=
EXTT6=
EXTT7=
EXTT8=
EXTT9=
EXTT10=
EXTT11=
EXTT12=
EXTT13=
EXTT14=
EXTT15=
EXTT16=
EXTT17=
EXTT18=
EXTT19=
PLAYORDER=
